<svg width="177" height="48" viewBox="0 0 177 48" fill="none" xmlns="http://www.w3.org/2000/svg">
<path d="M13.5809 3.67464C16.2501 2.56911 19.111 2 22 2V13C20.5554 13 19.125 13.2845 17.7905 13.8374C16.4559 14.3901 15.2432 15.2004 14.2218 16.2218C13.2004 17.2432 12.3901 18.4559 11.8374 19.7905C11.2845 21.125 11 22.5554 11 24H0C0 21.111 0.569108 18.2501 1.67464 15.5809C2.7803 12.9117 4.40075 10.4866 6.44361 8.44361C8.4866 6.40075 10.9117 4.7803 13.5809 3.67464Z" fill="#C29007"/>
<path d="M0 24C0 26.889 0.569108 29.7499 1.67464 32.4191C2.7803 35.0883 4.40075 37.5134 6.44361 39.5564C8.48659 41.5992 10.9117 43.2197 13.5809 44.3254C16.2501 45.4309 19.111 46 22 46C24.889 46 27.7499 45.4309 30.4191 44.3254C33.0883 43.2197 35.5134 41.5992 37.5564 39.5564C39.5992 37.5134 41.2197 35.0883 42.3254 32.4191C43.4309 29.7499 44 26.889 44 24H33C33 25.4446 32.7155 26.875 32.1626 28.2095C31.6099 29.5441 30.7996 30.7568 29.7782 31.7782C28.7568 32.7996 27.5441 33.6099 26.2095 34.1626C24.875 34.7155 23.4446 35 22 35C20.5554 35 19.125 34.7155 17.7905 34.1626C16.4559 33.6099 15.2432 32.7996 14.2218 31.7782C13.2004 30.7568 12.3901 29.5441 11.8374 28.2095C11.2845 26.875 11 25.4446 11 24H0Z" fill="#F6B912"/>
<path d="M22 17C18.134 17 15 20.134 15 24H29C29 20.134 25.866 17 22 17Z" fill="#F6B912"/>
<path d="M22 31C18.134 31 15 27.866 15 24H29C29 27.866 25.866 31 22 31Z" fill="#C29007"/>
<path d="M66.8169 19.402C66.7373 18.5999 66.396 17.9768 65.7927 17.5327C65.1895 17.0886 64.3709 16.8665 63.3368 16.8665C62.6341 16.8665 62.0409 16.966 61.557 17.1648C61.073 17.3571 60.7018 17.6255 60.4433 17.9702C60.1914 18.3149 60.0655 18.706 60.0655 19.1435C60.0522 19.5081 60.1284 19.8263 60.2942 20.0981C60.4665 20.3698 60.7018 20.6052 61.0001 20.804C61.2984 20.9963 61.6431 21.1653 62.0342 21.3111C62.4253 21.4503 62.8429 21.5696 63.2871 21.6691L65.1166 22.1066C66.0049 22.3054 66.8202 22.5706 67.5626 22.902C68.3051 23.2335 68.9481 23.6411 69.4916 24.125C70.0352 24.6089 70.4561 25.179 70.7544 25.8353C71.0593 26.4915 71.2151 27.2439 71.2217 28.0924C71.2151 29.3386 70.8969 30.4191 70.2672 31.3339C69.6441 32.242 68.7426 32.948 67.5626 33.4517C66.3893 33.9489 64.9741 34.1975 63.3169 34.1975C61.673 34.1975 60.2411 33.9456 59.0214 33.4418C57.8084 32.938 56.8605 32.1923 56.1777 31.2046C55.5016 30.2103 55.1469 28.9806 55.1138 27.5157H59.28C59.3264 28.1984 59.5219 28.7685 59.8666 29.2259C60.2179 29.6767 60.6853 30.018 61.2686 30.25C61.8586 30.4754 62.5248 30.5881 63.2672 30.5881C63.9963 30.5881 64.6294 30.4821 65.1663 30.2699C65.7099 30.0578 66.1308 29.7628 66.4291 29.385C66.7274 29.0071 66.8766 28.573 66.8766 28.0824C66.8766 27.625 66.7407 27.2406 66.4689 26.929C66.2037 26.6175 65.8126 26.3523 65.2956 26.1336C64.7852 25.9148 64.1588 25.716 63.4163 25.537L61.199 24.9802C59.4821 24.5625 58.1266 23.9096 57.1322 23.0214C56.1379 22.1331 55.6441 20.9366 55.6507 19.4319C55.6441 18.1989 55.9722 17.1217 56.6351 16.2003C57.3046 15.2789 58.2227 14.5597 59.3893 14.0427C60.556 13.5256 61.8818 13.2671 63.3666 13.2671C64.878 13.2671 66.1971 13.5256 67.324 14.0427C68.4575 14.5597 69.3391 15.2789 69.9689 16.2003C70.5986 17.1217 70.9234 18.189 70.9433 19.402H66.8169Z" fill="#F6B912"/>
<path d="M80.9984 34.2074C79.4273 34.2074 78.0751 33.8892 76.9415 33.2529C75.8146 32.6099 74.9463 31.7017 74.3364 30.5285C73.7266 29.3485 73.4217 27.9532 73.4217 26.3424C73.4217 24.7714 73.7266 23.3926 74.3364 22.206C74.9463 21.0195 75.8047 20.0947 76.9117 19.4319C78.0253 18.769 79.3312 18.4375 80.8293 18.4375C81.8369 18.4375 82.7749 18.6 83.6432 18.9248C84.5182 19.2429 85.2806 19.7235 85.9302 20.3665C86.5864 21.0095 87.0968 21.8182 87.4614 22.7927C87.826 23.7605 88.0083 24.894 88.0083 26.1932V27.3566H75.112V24.7316H84.0211C84.0211 24.1217 83.8885 23.5815 83.6234 23.1108C83.3582 22.6402 82.9903 22.2723 82.5197 22.0071C82.0556 21.7354 81.5154 21.5995 80.8989 21.5995C80.2559 21.5995 79.6859 21.7486 79.1887 22.0469C78.6982 22.3386 78.3137 22.733 78.0353 23.2302C77.7569 23.7207 77.6144 24.2676 77.6077 24.8708V27.3665C77.6077 28.1222 77.7469 28.7751 78.0253 29.3253C78.3104 29.8755 78.7114 30.2998 79.2285 30.5981C79.7455 30.8964 80.3587 31.0455 81.068 31.0455C81.5386 31.0455 81.9695 30.9792 82.3606 30.8466C82.7517 30.7141 83.0864 30.5152 83.3648 30.25C83.6432 29.9849 83.8554 29.6601 84.0012 29.2756L87.9188 29.5341C87.7199 30.4754 87.3123 31.2974 86.6958 32C86.086 32.6961 85.2971 33.2396 84.3293 33.6307C83.3682 34.0152 82.2578 34.2074 80.9984 34.2074Z" fill="#F6B912"/>
<path d="M97.6532 39.9546C96.281 39.9546 95.1044 39.7657 94.1234 39.3878C93.1489 39.0166 92.3734 38.5095 91.7967 37.8665C91.2199 37.2235 90.8454 36.501 90.6731 35.6989L94.5907 35.1719C94.71 35.4768 94.8989 35.7619 95.1574 36.027C95.416 36.2922 95.7574 36.5043 96.1816 36.6634C96.6125 36.8291 97.1361 36.912 97.7526 36.912C98.674 36.912 99.433 36.6866 100.03 36.2358C100.633 35.7917 100.934 35.046 100.934 33.9986V31.2046H100.755C100.57 31.6288 100.291 32.0299 99.9202 32.4077C99.549 32.7856 99.0717 33.0938 98.4884 33.3324C97.9051 33.5711 97.2091 33.6904 96.4003 33.6904C95.2536 33.6904 94.2095 33.4252 93.2682 32.8949C92.3336 32.358 91.5878 31.5393 91.031 30.439C90.4808 29.332 90.2057 27.9333 90.2057 26.2429C90.2057 24.5128 90.4875 23.0678 91.0509 21.9077C91.6144 20.7477 92.3634 19.8793 93.2981 19.3026C94.2394 18.7259 95.2701 18.4375 96.3904 18.4375C97.2455 18.4375 97.9614 18.5834 98.5381 18.875C99.1148 19.1601 99.5788 19.518 99.9302 19.9489C100.288 20.3732 100.563 20.7908 100.755 21.2017H100.915V18.6364H105.121V34.0583C105.121 35.3575 104.802 36.4446 104.166 37.3196C103.53 38.1946 102.648 38.8509 101.521 39.2884C100.401 39.7325 99.1115 39.9546 97.6532 39.9546ZM97.7427 30.5086C98.4254 30.5086 99.0021 30.3395 99.4728 30.0015C99.9501 29.6568 100.315 29.1662 100.567 28.5299C100.825 27.8869 100.954 27.1179 100.954 26.2231C100.954 25.3282 100.828 24.5526 100.576 23.8964C100.325 23.2335 99.96 22.7197 99.4827 22.3552C99.0055 21.9906 98.4254 21.8083 97.7427 21.8083C97.0467 21.8083 96.46 21.9972 95.9827 22.375C95.5055 22.7463 95.1442 23.2633 94.8989 23.9262C94.6537 24.5891 94.531 25.3547 94.531 26.2231C94.531 27.1047 94.6537 27.867 94.8989 28.51C95.1508 29.1464 95.5121 29.6402 95.9827 29.9915C96.46 30.3362 97.0467 30.5086 97.7427 30.5086Z" fill="#F6B912"/>
<path d="M108.491 33.9091V18.6364H112.528V21.331H112.707C113.025 20.4361 113.556 19.7302 114.298 19.2131C115.04 18.6961 115.929 18.4375 116.963 18.4375C118.01 18.4375 118.902 18.6994 119.638 19.2231C120.373 19.7401 120.864 20.4428 121.109 21.331H121.268C121.58 20.456 122.143 19.7567 122.959 19.233C123.781 18.7027 124.752 18.4375 125.872 18.4375C127.297 18.4375 128.454 18.8916 129.342 19.7998C130.237 20.7013 130.684 21.9806 130.684 23.6378V33.9091H126.459V24.4731C126.459 23.6246 126.233 22.9882 125.782 22.564C125.332 22.1397 124.768 21.9276 124.092 21.9276C123.323 21.9276 122.723 22.1729 122.292 22.6634C121.862 23.1473 121.646 23.787 121.646 24.5824V33.9091H117.54V24.3836C117.54 23.6345 117.324 23.0379 116.893 22.5938C116.469 22.1497 115.909 21.9276 115.213 21.9276C114.742 21.9276 114.318 22.0469 113.94 22.2856C113.569 22.5176 113.274 22.8457 113.055 23.2699C112.836 23.6875 112.727 24.1781 112.727 24.7415V33.9091H108.491Z" fill="#F6B912"/>
<path d="M140.991 34.2074C139.42 34.2074 138.067 33.8892 136.934 33.2529C135.807 32.6099 134.938 31.7017 134.329 30.5285C133.719 29.3485 133.414 27.9532 133.414 26.3424C133.414 24.7714 133.719 23.3926 134.329 22.206C134.938 21.0195 135.797 20.0947 136.904 19.4319C138.018 18.769 139.323 18.4375 140.822 18.4375C141.829 18.4375 142.767 18.6 143.635 18.9248C144.51 19.2429 145.273 19.7235 145.922 20.3665C146.579 21.0095 147.089 21.8182 147.454 22.7927C147.818 23.7605 148 24.894 148 26.1932V27.3566H135.104V24.7316H144.013C144.013 24.1217 143.881 23.5815 143.616 23.1108C143.35 22.6402 142.982 22.2723 142.512 22.0071C142.048 21.7354 141.508 21.5995 140.891 21.5995C140.248 21.5995 139.678 21.7486 139.181 22.0469C138.69 22.3386 138.306 22.733 138.027 23.2302C137.749 23.7207 137.607 24.2676 137.6 24.8708V27.3665C137.6 28.1222 137.739 28.7751 138.018 29.3253C138.303 29.8755 138.704 30.2998 139.221 30.5981C139.738 30.8964 140.351 31.0455 141.06 31.0455C141.531 31.0455 141.962 30.9792 142.353 30.8466C142.744 30.7141 143.079 30.5152 143.357 30.25C143.635 29.9849 143.848 29.6601 143.993 29.2756L147.911 29.5341C147.712 30.4754 147.304 31.2974 146.688 32C146.078 32.6961 145.289 33.2396 144.322 33.6307C143.36 34.0152 142.25 34.2074 140.991 34.2074Z" fill="#F6B912"/>
<path d="M155 25.0796V33.9091H150.765V18.6364H154.802V21.331H154.981C155.319 20.4428 155.885 19.7401 156.681 19.2231C157.476 18.6994 158.441 18.4375 159.574 18.4375C160.635 18.4375 161.56 18.6696 162.348 19.1336C163.137 19.5976 163.75 20.2605 164.188 21.1222C164.625 21.9773 164.844 22.9982 164.844 24.1847V33.9091H160.608V24.9404C160.615 24.0057 160.376 23.2766 159.893 22.7529C159.409 22.2226 158.742 21.9574 157.894 21.9574C157.324 21.9574 156.82 22.0801 156.383 22.3253C155.952 22.5706 155.614 22.9285 155.368 23.3992C155.13 23.8632 155.007 24.4233 155 25.0796Z" fill="#F6B912"/>
<path d="M176.306 18.6364V21.8182H167.109V18.6364H176.306ZM169.197 14.9773H173.433V29.216C173.433 29.6071 173.492 29.912 173.612 30.1307C173.731 30.3428 173.897 30.492 174.109 30.5782C174.328 30.6643 174.579 30.7074 174.864 30.7074C175.063 30.7074 175.262 30.6909 175.461 30.6577C175.66 30.6179 175.812 30.5881 175.918 30.5682L176.585 33.7202C176.373 33.7865 176.074 33.8627 175.69 33.9489C175.305 34.0417 174.838 34.0981 174.288 34.1179C173.267 34.1577 172.372 34.0218 171.603 33.7103C170.841 33.3987 170.248 32.9148 169.823 32.2586C169.399 31.6023 169.19 30.7737 169.197 29.7728V14.9773Z" fill="#F6B912"/>
</svg>
